<svg xmlns="http://www.w3.org/2000/svg" viewBox="0 0 105 105"><path d="M104.213 45.188c-.966-6.832-2.764-13.469-4.957-20.036-2.478-7.424-7.816-12.24-13.786-16.644-.266-.197-.596-.305-.875-.487-2.139-1.396-4.421-2.554-6.453-4.146-1.574-1.234-3.414-2.139-5.424-2.478-2.409-.404-4.832-.803-7.265-.986-3.457-.262-6.887.312-10.295.814-3.736.553-7.443 1.311-11.174 1.912-1.181.188-2.415.057-3.594.254-4.671.777-8.942 2.636-13.022 4.986-1.637.941-3.267 1.912-4.963 2.738-7.006 3.408-12.041 8.73-15.173 15.801C2.538 37.52-.061 48.603.001 60.251c.014 3.343.095 6.669.624 9.991.582 3.662 1.581 7.178 3.228 10.481 3.778 7.568 9.604 13.005 17.34 16.422 2.34 1.033 4.641 2.154 6.963 3.225 1.112.514 2.211 1.065 3.353 1.498 2.403.914 4.85 1.615 7.478 1.5.869-.037 1.77.13 2.625.332 4.941 1.17 9.949 1.029 14.958.797 1.55-.073 3.089-.386 4.639-.457a19.24 19.24 0 0 0 7.397-1.825c2.832-1.335 5.512-2.917 7.987-4.835a53.032 53.032 0 0 1 6.109-4.061c4.794-2.748 8.884-6.321 12.086-10.855 1.35-1.908 2.693-3.824 3.963-5.786.846-1.305 1.596-2.677 2.326-4.052 2.896-5.459 3.413-11.457 3.857-17.457.25-3.352-.257-6.691-.721-9.981zm-7.21 17.26c-.223.744-.545 1.492-.586 2.251-.197 3.712-1.849 6.862-3.868 9.812-2.147 3.137-4.783 5.857-7.79 8.218-2.545 1.999-5.113 3.917-8.014 5.403-2.374 1.216-4.568 2.775-6.91 4.057-3.875 2.121-8.007 3.303-12.478 3.07a60.932 60.932 0 0 0-3.677-.068c-1.642.013-3.036-.287-3.896-1.959-.396-.77-1.336-.625-1.951.109a.899.899 0 0 0-.166.289c-.294.906-.988 1.094-1.837 1.08-1.099-.016-1.312-.176-1.553-1.237-.121-.532-.22-1.089-.457-1.57-.35-.712-1.528-.829-2.016-.266-.072.083-.172.158-.206.255-.588 1.74-1.771 1.981-3.347 1.395-.831-.308-1.718-.461-2.548-.77-1.521-.56-1.74-.995-1.405-2.497.167-.757.421-1.503.496-2.269.104-1.055-.73-1.873-1.85-1.932-.588-.033-1.132.117-1.437.646-.445.77-.793 1.592-1.24 2.359-.249.43-.699.531-1.155.316-.503-.238-1.016-.475-1.464-.795-.361-.258-.584-.633-.415-1.152.241-.74.435-1.496.63-2.248.111-.43.218-.863.272-1.303a1.638 1.638 0 0 0-.911-1.641c-.549-.251-1.11-.225-1.586.104a5.53 5.53 0 0 0-1.217 1.122c-.407.522-.677 1.149-1.06 1.694-.278.396-.736.582-1.144.263-.316-.248-.6-.633-.711-1.013-.078-.266.13-.638.26-.941.795-1.84 1.614-3.668 2.397-5.512.215-.505.498-1.068.446-1.575-.048-.481-.406-1.021-.783-1.359-.466-.417-1.132-.269-1.508.165-1.167 1.344-2.261 2.75-3.378 4.135-.276.342-.527.705-.81 1.043-.06.072-.262.135-.3.101-.142-.134-.302-.298-.348-.476-.177-.699.133-1.289.436-1.899 1.244-2.488 2.486-4.98 3.665-7.5.32-.687.492-1.47.582-2.226.068-.566-.272-1.054-.814-1.346-.576-.308-1.13-.176-1.525.249-1.06 1.136-2.107 2.29-3.072 3.507-.69.871-1.225 1.859-1.861 2.773-.167.238-.431.59-.78.217-.22-.234-.489-.541-.501-.826-.021-.42.106-.879.28-1.273 1.128-2.543 2.294-5.072 3.435-7.611.411-.912.796-1.838 1.173-2.764.281-.695.038-1.299-.367-1.872-.355-.503-.985-.653-1.446-.312-.267.201-.53.408-.775.633-1.248 1.138-2.242 2.469-3.057 3.947-.298.537-.448 1.242-1.219 1.379-.169-.521-.307-1.059-.515-1.563-.332-.809-.102-1.521.272-2.232.571-1.084 1.179-2.152 1.684-3.266a93.064 93.064 0 0 0 2.205-5.227c.228-.6.253-1.305.251-1.96-.001-.783-.81-1.416-1.617-1.316-.322.04-.621.242-.943.323-.554.138-.912-.108-.881-.57.111-1.694.505-3.265 1.631-4.632 2.126-2.58 4.178-5.218 6.263-7.83.487-.608 1.002-1.196 1.475-1.816.671-.881.781-1.676.323-2.1-.669-.62-1.464-.508-2.191-.234-.611.229-1.135.68-1.72.992-.857.459-1.396 1.396-2.415 1.602.01.03.02.062.027.092-.052.009-.107.014-.16.021l-.211.254c.026-.073.03-.184.08-.213a.372.372 0 0 1 .131-.041l.083-.1c.017-.003.032-.011.049-.014-.026-.082-.055-.164-.037-.234.863-3.355 1.893-6.719 4.485-9.135 6.83-6.367 14.444-11.517 23.498-14.254 4.161-1.256 8.425-2.061 12.689-2.846a8.548 8.548 0 0 1 4.61.421c.54.203.596.333.235.948-.113.191-.285.347-.396.536-.287.501-.537 1.116.036 1.474.415.26 1.148.429 1.536.232 1.182-.598 2.289-1.354 3.378-2.115.91-.637 1.717-1.447 2.861-1.641.294-.049.626.132.94.207-.061.197-.074.427-.189.58-.198.264-.469.47-.693.717a7.172 7.172 0 0 0-.642.764c-.42.6-.382 1.38.072 1.836.459.461 1.001.441 1.533.191.906-.429 1.856-.802 2.678-1.36 2.009-1.36 4.175-1.332 6.415-.928a.728.728 0 0 1 .282.148c-.078.193-.132.47-.282.543-.693.336-1.428.584-2.12.922-.613.299-.576 1.265.004 1.653.684.456 1.409.696 2.211.454.959-.29 1.911-.606 2.844-.968.909-.349 1.704-.255 2.525.282 2.171 1.418 4.057 3.134 5.587 5.223 1.322 1.802 2.451 3.735 3.23 5.83 1.552 4.174 2.847 8.413 3.68 12.812a104.735 104.735 0 0 1 1.671 13.906c.203 3.756.006 7.573-1.095 11.252zm-27.115.084c-.849-3.996-2.757-7.502-6.065-10.098-1.156-.906-2.378-1.811-3.885-1.68-.991.088-1.652-.193-2.439-.689-2.183-1.379-4.423-1.313-6.602.091-1.691 1.088-3.313 2.251-4.663 3.771-2.617 2.941-2.723 6.348-1.32 9.685 1.159 2.757 3.003 5.198 5.234 7.281 1.533 1.432 3.326 2.197 5.415 2.272.667.025 1.337.004 2.005.004v.017c.669 0 1.346.068 2.004-.012 3.066-.375 5.814-1.53 8.084-3.641 2.034-1.889 2.785-4.4 2.232-7.001zm-11.843 2.239c-1.723-.454-2.959-1.538-3.905-2.921-.469-.685-.558-1.631-.822-2.467.407-1.363.734-2.646 1.177-3.889.375-1.053.997-1.361 2.076-.938.773.304 1.43.412 2.211.078.678-.289 1.33.025 1.84.479.829.734 1.646 1.492 2.39 2.31 1.107 1.22 2.119 2.516 2.197 4.275-1.348 2.289-4.769 3.705-7.164 3.073zM41.413 39.778c.558.018 1.116.003 1.808.003 2.239.288 4.246-.489 5.974-2.1 1.384-1.29 2.798-2.548 4.179-3.839.487-.455.955-.94 1.364-1.463 1.961-2.514 1.691-5.198.451-7.877-1.255-2.707-3.639-3.447-6.381-3.311-1.777.09-3.555.279-5.315.545-1.091.166-2.165.508-3.212.869-.745.258-1.312.779-1.69 1.527-.452.893-.149 1.562.825 1.633 2.55.184 5.103.354 7.652.564.88.072 1.754.234 2.624.392.173.03.389.202.459.364.646 1.504.12 2.908-1.304 3.541-.712.316-1.415.663-2.147.924-2.377.844-4.592.594-6.564-1.073-.34-.286-.636-.628-.995-.886-1.023-.739-2.593-.143-2.927 1.115-.198.752-.417 1.516-.468 2.286-.278 4.174 2.188 6.678 5.667 6.786zm-4.432 19.523c.923-1.008 1.545-2.332 1.069-3.672-.436-1.223-1.263-2.318-1.995-3.419-.357-.537-1.45-.612-2.17-.287a1.719 1.719 0 0 0-.979 1.917c.111.536.382 1.041.492 1.578.098.475-.144.924-.616 1.019-1.435.288-2.873.332-4.193-.46-.856-.514-1.691-1.061-2.527-1.608-.961-.632-1.574-1.538-2.009-2.587-.9-2.17.098-4.497 2.337-5.408.202-.08.453-.057.634-.162.441-.254.533-.676.396-1.138-.273-.927-.922-1.593-1.808-1.805-3.08-.737-4.745-.067-6.033 2.622-.466.974-.646 2.115-.788 3.201-.128.982-.026 1.994-.026 2.994h-.043c0 .777-.024 1.555.004 2.33.14 4.039 2.843 7.285 6.783 7.867 3.116.461 6.222.214 9.103-1.209a8.197 8.197 0 0 0 2.369-1.773zm4.735 10.529c-1.863-.084-3.709.494-5.589.2-.201-.03-.433.089-.641.161-2.996 1.074-4.265 2.718-4.274 6.359-.005 1.859.655 3.465 2.311 4.559 1.113.733 2.156 1.572 3.23 2.361 1.431 1.048 3.056 1.316 4.762 1.074 2.412-.342 4.12-1.619 4.782-4.026.291-1.062.386-2.176.604-3.47-.222-1.154-.312-2.512-.757-3.74-.73-2.01-2.159-3.377-4.428-3.478zm.489 7.579c-.008.125-.01.682-.093 1.225-.134.888-1.087 1.477-2 1.276-.215-.048-.47-.046-.634-.165-1.16-.838-2.349-1.646-3.429-2.578-.756-.651-.346-2.17.623-2.461 1.051-.314 2.119-.6 3.199-.775 1.442-.234 2.26.533 2.332 2.057.015.329.002.663.002 1.421zM74.89 29.903a6.813 6.813 0 0 0 1.752 2.379c1.564 1.352 3.394 1.483 5.263.617 1.547-.718 1.816-2.114 1.821-3.625v-.668c.077-2.73-1.021-4.94-2.995-6.762-.593-.549-1.289-.799-2.1-.873-3.095-.285-5.175 2.896-4.825 5.119a16.09 16.09 0 0 0 1.084 3.813zm10.796 18.108c-.095-1.283-.711-2.308-1.71-3.099-.844-.665-1.811-.822-2.815-.481-1.701.575-1.963 2.604-3.436 3.468-.385.228-.489.939-.711 1.434-.044.096-.044.217-.044.326-.003 1.324-.026 2.65.007 3.975.028 1.096.663 1.914 1.551 2.402 1.054.58 2.213.966 3.334 1.417.197.078.434.099.648.083 1.551-.113 3.005-1.357 3.192-2.906.132-1.088.025-2.203.025-3.309h.111c-.049-1.103-.072-2.209-.152-3.31zM75.272 72.608c-1.332-.17-2.669-.178-3.895.474-3.118 1.654-5.368 3.913-5.259 7.765 0 .221-.008.443.001.664.066 1.511.957 2.412 2.518 2.533 1.485.117 2.891-.187 4.094-1.062.891-.647 1.711-1.403 2.495-2.178 1.813-1.795 2.177-4.025 1.796-6.442-.147-.935-.845-1.639-1.75-1.754zM62.235 40.486c.542.093 1.1.085 1.661.125.653-.054 1.324-.048 1.97-.175 1.339-.264 2.146-1.154 2.36-2.461.232-1.414.462-2.887-.877-3.98-.085-.07-.171-.142-.265-.199-1.965-1.164-4.033-.814-6.102-.405-.101.02-.188.112-.278.175-1.108.771-1.848 2.554-1.51 3.797.431 1.589 1.286 2.819 3.041 3.123zm1.165-3.742c.543-.059 1.096-.164 1.624-.092.207.027.357.475.533.731-.185.11-.366.236-.562.328-.094.045-.22.027-.557.059-.212-.055-.646-.127-1.043-.292-.129-.054-.178-.343-.219-.536-.01-.051.139-.19.224-.198z" fill-rule="evenodd" clip-rule="evenodd"/></svg>